<svg width="25" height="20" viewBox="0 0 25 20" fill="none" xmlns="http://www.w3.org/2000/svg">
<path d="M2.17944 19.4406C1.55816 19.4406 1.03982 19.2329 0.624432 18.8176C0.209043 18.4022 0.00089911 17.8834 0 17.2612V2.73877C0 2.11748 0.208144 1.59915 0.624432 1.18376C1.04072 0.768369 1.55861 0.560225 2.17809 0.559326H22.0979C22.7183 0.559326 23.2361 0.76747 23.6515 1.18376C24.0669 1.60005 24.2751 2.11838 24.276 2.73877V17.2625C24.276 17.8829 24.0678 18.4013 23.6515 18.8176C23.2352 19.2338 22.7174 19.4415 22.0979 19.4406H2.17944ZM12.138 10.1564L1.34866 3.10156V17.2625C1.34866 17.5044 1.42644 17.7031 1.58198 17.8586C1.73753 18.0142 1.93668 18.092 2.17944 18.092H22.0979C22.3397 18.092 22.5384 18.0142 22.694 17.8586C22.8495 17.7031 22.9273 17.504 22.9273 17.2612V3.10021L12.138 10.1564ZM12.138 8.65131L22.5119 1.90799H1.76405L12.138 8.65131ZM1.34866 3.10156V1.90799V17.2625C1.34866 17.5044 1.42644 17.7031 1.58198 17.8586C1.73753 18.0142 1.93668 18.092 2.17944 18.092H1.34866V3.10156Z" fill="black"/>
</svg>
