<svg width="35" height="30" viewBox="0 0 35 30" fill="none" xmlns="http://www.w3.org/2000/svg">
<path d="M30.625 3.75C31.0118 3.75 31.3827 3.8817 31.6562 4.11612C31.9297 4.35054 32.0833 4.66848 32.0833 5V25.0088C32.0807 25.337 31.9274 25.6512 31.6567 25.8835C31.3861 26.1157 31.0196 26.2474 30.6367 26.25H4.36333C3.97952 26.2497 3.61156 26.1187 3.3403 25.886C3.06904 25.6533 2.91667 25.3377 2.91667 25.0088V23.75H29.1667V9.125L17.5 18.125L2.91667 6.875V5C2.91667 4.66848 3.07031 4.35054 3.3438 4.11612C3.61729 3.8817 3.98823 3.75 4.375 3.75H30.625ZM11.6667 18.75V21.25H0V18.75H11.6667ZM7.29167 12.5V15H0V12.5H7.29167ZM28.5337 6.25H6.46625L17.5 14.7625L28.5337 6.25Z" fill="black"/>
</svg>
