<svg width="91" height="95" viewBox="0 0 91 95" fill="none" xmlns="http://www.w3.org/2000/svg">
<path d="M87.0377 54.4328C85.5685 52.4048 84.7775 49.9646 84.7775 47.4604C84.7775 44.9562 85.5685 42.516 87.0377 40.488L90.0485 36.3283C90.4166 35.8203 90.6589 35.2322 90.7553 34.6124C90.8517 33.9925 90.7996 33.3586 90.6031 32.7628C90.4046 32.1733 90.0725 31.6377 89.6327 31.1979C89.1928 30.758 88.6572 30.4259 88.0677 30.2274L83.1949 28.6428C80.8079 27.8728 78.7272 26.3643 77.2533 24.3349C75.7793 22.3055 74.9883 19.8603 74.9944 17.3522V12.2021C74.9939 11.5768 74.8455 10.9605 74.5611 10.4036C74.2768 9.84674 73.8647 9.36505 73.3585 8.99796C72.8523 8.63088 72.2664 8.38883 71.6488 8.29161C71.0311 8.19438 70.3992 8.24475 69.8047 8.43859L64.8923 10.0232C62.5074 10.795 59.9396 10.7929 57.556 10.0173C55.1724 9.24176 53.095 7.73241 51.6209 5.70508L48.6101 1.54539C48.2257 1.0633 47.7375 0.674021 47.182 0.406477C46.6265 0.138933 46.0178 0 45.4012 0C44.7846 0 44.1759 0.138933 43.6204 0.406477C43.0648 0.674021 42.5767 1.0633 42.1923 1.54539L39.1815 5.70508C37.7073 7.73241 35.63 9.24176 33.2464 10.0173C30.8627 10.7929 28.2949 10.795 25.9101 10.0232L20.9977 8.43859C20.4032 8.24475 19.7713 8.19438 19.1536 8.29161C18.5359 8.38883 17.9501 8.63088 17.4439 8.99796C16.9377 9.36505 16.5256 9.84674 16.2412 10.4036C15.9569 10.9605 15.8085 11.5768 15.808 12.2021V17.3522C15.8141 19.8603 15.023 22.3055 13.5491 24.3349C12.0751 26.3643 9.9945 27.8728 7.60747 28.6428L2.73469 30.2274C2.14517 30.4259 1.60955 30.758 1.16971 31.1979C0.729863 31.6377 0.397725 32.1733 0.199264 32.7628C0.00281456 33.3586 -0.049345 33.9925 0.0470784 34.6124C0.143502 35.2322 0.385752 35.8203 0.75389 36.3283L3.76471 40.488C5.23385 42.516 6.02486 44.9562 6.02486 47.4604C6.02486 49.9646 5.23385 52.4048 3.76471 54.4328L0.75389 58.5925C0.385752 59.1005 0.143502 59.6886 0.0470784 60.3084C-0.049345 60.9283 0.00281456 61.5622 0.199264 62.158C0.397725 62.7475 0.729863 63.2831 1.16971 63.7229C1.60955 64.1628 2.14517 64.4949 2.73469 64.6934L7.60747 66.278C9.9945 67.048 12.0751 68.5565 13.5491 70.5859C15.023 72.6153 15.8141 75.0605 15.808 77.5686V82.7187C15.8085 83.344 15.9569 83.9603 16.2412 84.5172C16.5256 85.0741 16.9377 85.5558 17.4439 85.9228C17.9501 86.2899 18.5359 86.532 19.1536 86.6292C19.7713 86.7264 20.4032 86.6761 20.9977 86.4822L25.8705 84.8976C28.2604 84.1129 30.8379 84.1083 33.2306 84.8845C35.6233 85.6607 37.7073 87.1775 39.1815 89.2157L42.1923 93.3754C42.5622 93.879 43.0454 94.2885 43.6028 94.5707C44.1603 94.8529 44.7764 95 45.4012 95C46.026 95 46.6421 94.8529 47.1995 94.5707C47.757 94.2885 48.2402 93.879 48.6101 93.3754L51.6209 89.2157C53.0975 87.1804 55.1816 85.6658 57.5735 84.8898C59.9653 84.1139 62.5417 84.1166 64.9319 84.8976L69.8047 86.4822C70.3992 86.6761 71.0311 86.7264 71.6488 86.6292C72.2664 86.532 72.8523 86.2899 73.3585 85.9228C73.8647 85.5558 74.2768 85.0741 74.5611 84.5172C74.8455 83.9603 74.9939 83.344 74.9944 82.7187V77.5686C74.9883 75.0605 75.7793 72.6153 77.2533 70.5859C78.7272 68.5565 80.8079 67.048 83.1949 66.278L88.0677 64.6934C88.6572 64.4949 89.1928 64.1628 89.6327 63.7229C90.0725 63.2831 90.4046 62.7475 90.6031 62.158C90.7996 61.5622 90.8517 60.9283 90.7553 60.3084C90.6589 59.6886 90.4166 59.1005 90.0485 58.5925L87.0377 54.4328ZM64.0603 42.338L44.2523 62.1461C43.5094 62.8888 42.5019 63.306 41.4515 63.306C40.401 63.306 39.3935 62.8888 38.6506 62.1461L26.7658 50.2613C26.3874 49.8958 26.0856 49.4587 25.878 48.9753C25.6704 48.492 25.5611 47.9722 25.5565 47.4461C25.5519 46.9201 25.6522 46.3985 25.8514 45.9116C26.0506 45.4247 26.3447 44.9824 26.7167 44.6104C27.0887 44.2385 27.531 43.9443 28.0178 43.7451C28.5047 43.5459 29.0264 43.4457 29.5524 43.4503C30.0784 43.4548 30.5983 43.5641 31.0816 43.7717C31.5649 43.9794 32.0021 44.2812 32.3675 44.6595L41.4396 53.7435L58.4468 36.7363C59.1939 36.0147 60.1946 35.6154 61.2333 35.6244C62.2721 35.6334 63.2657 36.0501 64.0002 36.7846C64.7347 37.5191 65.1514 38.5127 65.1604 39.5514C65.1694 40.5902 64.7701 41.5909 64.0485 42.338H64.0603Z" fill="#00747D"/>
<path d="M87.0377 54.4328C85.5685 52.4048 84.7775 49.9646 84.7775 47.4604C84.7775 44.9562 85.5685 42.516 87.0377 40.488L90.0485 36.3283C90.4166 35.8203 90.6589 35.2322 90.7553 34.6124C90.8517 33.9925 90.7996 33.3586 90.6031 32.7628C90.4046 32.1733 90.0725 31.6377 89.6327 31.1979C89.1928 30.758 88.6572 30.4259 88.0677 30.2274L83.1949 28.6428C80.8079 27.8728 78.7272 26.3643 77.2533 24.3349C75.7793 22.3055 74.9883 19.8603 74.9944 17.3522V12.2021C74.9939 11.5768 74.8455 10.9605 74.5611 10.4036C74.2768 9.84674 73.8647 9.36505 73.3585 8.99796C72.8523 8.63088 72.2664 8.38883 71.6488 8.29161C71.0311 8.19438 70.3992 8.24475 69.8047 8.43859L64.8923 10.0232C62.5074 10.795 59.9396 10.7929 57.556 10.0173C55.1724 9.24176 53.095 7.73241 51.6209 5.70508L48.6101 1.54539C48.2257 1.0633 47.7375 0.674021 47.182 0.406477C46.6265 0.138933 46.0178 0 45.4012 0C44.7846 0 44.1759 0.138933 43.6204 0.406477C43.0648 0.674021 42.5767 1.0633 42.1923 1.54539L39.1815 5.70508C37.7073 7.73241 35.63 9.24176 33.2464 10.0173C30.8627 10.7929 28.2949 10.795 25.9101 10.0232L20.9977 8.43859C20.4032 8.24475 19.7713 8.19438 19.1536 8.29161C18.5359 8.38883 17.9501 8.63088 17.4439 8.99796C16.9377 9.36505 16.5256 9.84674 16.2412 10.4036C15.9569 10.9605 15.8085 11.5768 15.808 12.2021V17.3522C15.8141 19.8603 15.023 22.3055 13.5491 24.3349C12.0751 26.3643 9.9945 27.8728 7.60747 28.6428L2.73469 30.2274C2.14517 30.4259 1.60955 30.758 1.16971 31.1979C0.729863 31.6377 0.397725 32.1733 0.199264 32.7628C0.00281456 33.3586 -0.049345 33.9925 0.0470784 34.6124C0.143502 35.2322 0.385752 35.8203 0.75389 36.3283L3.76471 40.488C5.23385 42.516 6.02486 44.9562 6.02486 47.4604C6.02486 49.9646 5.23385 52.4048 3.76471 54.4328L0.75389 58.5925C0.385752 59.1005 0.143502 59.6886 0.0470784 60.3084C-0.049345 60.9283 0.00281456 61.5622 0.199264 62.158C0.397725 62.7475 0.729863 63.2831 1.16971 63.7229C1.60955 64.1628 2.14517 64.4949 2.73469 64.6934L7.60747 66.278C9.9945 67.048 12.0751 68.5565 13.5491 70.5859C15.023 72.6153 15.8141 75.0605 15.808 77.5686V82.7187C15.8085 83.344 15.9569 83.9603 16.2412 84.5172C16.5256 85.0741 16.9377 85.5558 17.4439 85.9228C17.9501 86.2899 18.5359 86.532 19.1536 86.6292C19.7713 86.7264 20.4032 86.6761 20.9977 86.4822L25.8705 84.8976C28.2604 84.1129 30.8379 84.1083 33.2306 84.8845C35.6233 85.6607 37.7073 87.1775 39.1815 89.2157L42.1923 93.3754C42.5622 93.879 43.0454 94.2885 43.6028 94.5707C44.1603 94.8529 44.7764 95 45.4012 95C46.026 95 46.6421 94.8529 47.1995 94.5707C47.757 94.2885 48.2402 93.879 48.6101 93.3754L51.6209 89.2157C53.0975 87.1804 55.1816 85.6658 57.5735 84.8898C59.9653 84.1139 62.5417 84.1166 64.9319 84.8976L69.8047 86.4822C70.3992 86.6761 71.0311 86.7264 71.6488 86.6292C72.2664 86.532 72.8523 86.2899 73.3585 85.9228C73.8647 85.5558 74.2768 85.0741 74.5611 84.5172C74.8455 83.9603 74.9939 83.344 74.9944 82.7187V77.5686C74.9883 75.0605 75.7793 72.6153 77.2533 70.5859C78.7272 68.5565 80.8079 67.048 83.1949 66.278L88.0677 64.6934C88.6572 64.4949 89.1928 64.1628 89.6327 63.7229C90.0725 63.2831 90.4046 62.7475 90.6031 62.158C90.7996 61.5622 90.8517 60.9283 90.7553 60.3084C90.6589 59.6886 90.4166 59.1005 90.0485 58.5925L87.0377 54.4328ZM64.0603 42.338L44.2523 62.1461C43.5094 62.8888 42.5019 63.306 41.4515 63.306C40.401 63.306 39.3935 62.8888 38.6506 62.1461L26.7658 50.2613C26.3874 49.8958 26.0856 49.4587 25.878 48.9753C25.6704 48.492 25.5611 47.9722 25.5565 47.4461C25.5519 46.9201 25.6522 46.3985 25.8514 45.9116C26.0506 45.4247 26.3447 44.9824 26.7167 44.6104C27.0887 44.2385 27.531 43.9443 28.0178 43.7451C28.5047 43.5459 29.0264 43.4457 29.5524 43.4503C30.0784 43.4548 30.5983 43.5641 31.0816 43.7717C31.5649 43.9794 32.0021 44.2812 32.3675 44.6595L41.4396 53.7435L58.4468 36.7363C59.1939 36.0147 60.1946 35.6154 61.2333 35.6244C62.2721 35.6334 63.2657 36.0501 64.0002 36.7846C64.7347 37.5191 65.1514 38.5127 65.1604 39.5514C65.1694 40.5902 64.7701 41.5909 64.0485 42.338H64.0603Z" fill="black" fill-opacity="0.2"/>
<path d="M87.0377 54.4328C85.5685 52.4048 84.7775 49.9646 84.7775 47.4604C84.7775 44.9562 85.5685 42.516 87.0377 40.488L90.0485 36.3283C90.4166 35.8203 90.6589 35.2322 90.7553 34.6124C90.8517 33.9925 90.7996 33.3586 90.6031 32.7628C90.4046 32.1733 90.0725 31.6377 89.6327 31.1979C89.1928 30.758 88.6572 30.4259 88.0677 30.2274L83.1949 28.6428C80.8079 27.8728 78.7272 26.3643 77.2533 24.3349C75.7793 22.3055 74.9883 19.8603 74.9944 17.3522V12.2021C74.9939 11.5768 74.8455 10.9605 74.5611 10.4036C74.2768 9.84674 73.8647 9.36505 73.3585 8.99796C72.8523 8.63088 72.2664 8.38883 71.6488 8.29161C71.0311 8.19438 70.3992 8.24475 69.8047 8.43859L64.8923 10.0232C62.5074 10.795 59.9396 10.7929 57.556 10.0173C55.1724 9.24176 53.095 7.73241 51.6209 5.70508L48.6101 1.54539C48.2257 1.0633 47.7375 0.674021 47.182 0.406477C46.6265 0.138933 46.0178 0 45.4012 0C44.7846 0 44.1759 0.138933 43.6204 0.406477C43.0648 0.674021 42.5767 1.0633 42.1923 1.54539L39.1815 5.70508C37.7073 7.73241 35.63 9.24176 33.2464 10.0173C30.8627 10.7929 28.2949 10.795 25.9101 10.0232L20.9977 8.43859C20.4032 8.24475 19.7713 8.19438 19.1536 8.29161C18.5359 8.38883 17.9501 8.63088 17.4439 8.99796C16.9377 9.36505 16.5256 9.84674 16.2412 10.4036C15.9569 10.9605 15.8085 11.5768 15.808 12.2021V17.3522C15.8141 19.8603 15.023 22.3055 13.5491 24.3349C12.0751 26.3643 9.9945 27.8728 7.60747 28.6428L2.73469 30.2274C2.14517 30.4259 1.60955 30.758 1.16971 31.1979C0.729863 31.6377 0.397725 32.1733 0.199264 32.7628C0.00281456 33.3586 -0.049345 33.9925 0.0470784 34.6124C0.143502 35.2322 0.385752 35.8203 0.75389 36.3283L3.76471 40.488C5.23385 42.516 6.02486 44.9562 6.02486 47.4604C6.02486 49.9646 5.23385 52.4048 3.76471 54.4328L0.75389 58.5925C0.385752 59.1005 0.143502 59.6886 0.0470784 60.3084C-0.049345 60.9283 0.00281456 61.5622 0.199264 62.158C0.397725 62.7475 0.729863 63.2831 1.16971 63.7229C1.60955 64.1628 2.14517 64.4949 2.73469 64.6934L7.60747 66.278C9.9945 67.048 12.0751 68.5565 13.5491 70.5859C15.023 72.6153 15.8141 75.0605 15.808 77.5686V82.7187C15.8085 83.344 15.9569 83.9603 16.2412 84.5172C16.5256 85.0741 16.9377 85.5558 17.4439 85.9228C17.9501 86.2899 18.5359 86.532 19.1536 86.6292C19.7713 86.7264 20.4032 86.6761 20.9977 86.4822L25.8705 84.8976C28.2604 84.1129 30.8379 84.1083 33.2306 84.8845C35.6233 85.6607 37.7073 87.1775 39.1815 89.2157L42.1923 93.3754C42.5622 93.879 43.0454 94.2885 43.6028 94.5707C44.1603 94.8529 44.7764 95 45.4012 95C46.026 95 46.6421 94.8529 47.1995 94.5707C47.757 94.2885 48.2402 93.879 48.6101 93.3754L51.6209 89.2157C53.0975 87.1804 55.1816 85.6658 57.5735 84.8898C59.9653 84.1139 62.5417 84.1166 64.9319 84.8976L69.8047 86.4822C70.3992 86.6761 71.0311 86.7264 71.6488 86.6292C72.2664 86.532 72.8523 86.2899 73.3585 85.9228C73.8647 85.5558 74.2768 85.0741 74.5611 84.5172C74.8455 83.9603 74.9939 83.344 74.9944 82.7187V77.5686C74.9883 75.0605 75.7793 72.6153 77.2533 70.5859C78.7272 68.5565 80.8079 67.048 83.1949 66.278L88.0677 64.6934C88.6572 64.4949 89.1928 64.1628 89.6327 63.7229C90.0725 63.2831 90.4046 62.7475 90.6031 62.158C90.7996 61.5622 90.8517 60.9283 90.7553 60.3084C90.6589 59.6886 90.4166 59.1005 90.0485 58.5925L87.0377 54.4328ZM64.0603 42.338L44.2523 62.1461C43.5094 62.8888 42.5019 63.306 41.4515 63.306C40.401 63.306 39.3935 62.8888 38.6506 62.1461L26.7658 50.2613C26.3874 49.8958 26.0856 49.4587 25.878 48.9753C25.6704 48.492 25.5611 47.9722 25.5565 47.4461C25.5519 46.9201 25.6522 46.3985 25.8514 45.9116C26.0506 45.4247 26.3447 44.9824 26.7167 44.6104C27.0887 44.2385 27.531 43.9443 28.0178 43.7451C28.5047 43.5459 29.0264 43.4457 29.5524 43.4503C30.0784 43.4548 30.5983 43.5641 31.0816 43.7717C31.5649 43.9794 32.0021 44.2812 32.3675 44.6595L41.4396 53.7435L58.4468 36.7363C59.1939 36.0147 60.1946 35.6154 61.2333 35.6244C62.2721 35.6334 63.2657 36.0501 64.0002 36.7846C64.7347 37.5191 65.1514 38.5127 65.1604 39.5514C65.1694 40.5902 64.7701 41.5909 64.0485 42.338H64.0603Z" fill="black" fill-opacity="0.2"/>
</svg>
